# ProBuilder 5.0.6
# https://unity3d.com/unity/features/worldbuilding/probuilder
# 11/14/2022 7:35:16 PM

mtllib ./Room.mtl
o Room

g Room
v -21.1547 -5 10
v -21.1547 0 10
v -15.57735 -5 19.66026
v -15.57735 0 19.66026
v -4.422649 -5 19.66025
v -4.422649 0 19.66025
v 1.154701 -5 9.999999
v 1.154701 0 9.999999
v -4.422651 -5 0.3397455
v -4.422651 0 0.3397455
v -15.57735 -5 0.3397455
v -15.57735 0 0.3397455
v 0 -5 9.999999
v -10 -5 10
v -5.000001 -5 1.339746
v 0 0 9.999999
v -10 0 10
v -5.000001 0 1.339746
v -15 -5 1.339746
v -15 0 1.339746
v -20 -5 10
v -20 0 10
v -5 2 1.339746
v -15 2 1.339746
v -4.422649 2 0.3397455
v -15.57735 2 0.3397455
v -20 2 10
v -21.1547 2 10
v 0 2 9.999999
v 1.154701 2 9.999999
v -5 -5 18.66025
v -5 2 18.66025
v -4.422649 2 19.66025
v -15 -5 18.66026
v -15 2 18.66026
v -15.57735 2 19.66026
v -15 0 18.66026
v -5 0 18.66025
v -12.5 -5 14.33013
v -12.5 0 14.33013
v -7.211325 -5 19.66026
v -9 0 19.66026
v -10 -5 19.66026
v -10 0 19.66026
v -7.5 -5 18.66026
v -10 -5 18.66026
v -9 2 18.66026
v -9 2 19.66026
v -9 0 18.66026
v -7.5 -5 14.33013
v -7.5 0 14.33013
v -12.78868 -5 19.66026
v -11 0 19.66026
v -12.5 -5 18.66026
v -11 2 18.66026
v -11 2 19.66026
v -11 0 18.66026
v -10 -5 16.49519
v -10 0 16.49519
v -10 0 18.66026

vt -1.917096 -5
vt -1.917096 0
vt 9.237605 -5
vt 9.237605 0
vt -19.2376 -5
vt -19.2376 0
vt -8.082904 -5
vt -8.082904 0
vt -9.237603 -5
vt -9.237603 0
vt 1.917098 -5
vt 1.917098 0
vt 4.422651 -5
vt 4.422651 0
vt 15.57735 -5
vt 15.57735 0
vt 8.082905 -5
vt 8.082905 0
vt 19.23761 -5
vt 19.23761 0
vt 0 9.999999
vt -10 10
vt -5.000001 1.339746
vt 10 10
vt 5.000001 1.339746
vt -15 1.339746
vt 15 1.339746
vt -20 10
vt 20 10
vt -15.57735 0.3397455
vt -4.422651 0.3397455
vt 15 1.339746
vt 4.422649 0.3397455
vt 15.57735 0.3397455
vt -21.1547 10
vt 21.1547 10
vt 1.154701 9.999999
vt -1.154701 9.999999
vt -5 18.66025
vt -4.422649 19.66025
vt 5 18.66025
vt 4.422649 19.66025
vt -15 18.66026
vt -15.57735 19.66026
vt 15 18.66026
vt 15.57735 19.66026
vt -5.000001 0
vt -15 0
vt -5 2
vt -15 2
vt 1.917097 1.999997
vt -9.237604 1.999997
vt 15.57735 2
vt 4.422649 2
vt -8.660254 5.087792E-06
vt -18.66026 5.087792E-06
vt -8.660254 2.000005
vt -18.66026 2.000005
vt 19.23761 2
vt 8.082905 2
vt 1.339744 0
vt 1.339744 2
vt 9.237605 2
vt -1.917096 2
vt 18.66025 -1.032383E-06
vt 8.660254 -1.032383E-06
vt 18.66025 1.999999
vt 8.660254 1.999999
vt -8.082903 2.000002
vt -19.2376 2.000002
vt -1.339748 0
vt 8.660253 2
vt -1.339747 2
vt -12.5 14.33013
vt 12.5 14.33013
vt -4.422653 -5.000001
vt -7.211328 -5.000001
vt -9.000004 -1.202604E-06
vt -4.422653 -1.202604E-06
vt -10 -5.000001
vt -10 -1.202604E-06
vt -7.5 18.66026
vt -7.211325 19.66026
vt -10 18.66026
vt -10 19.66026
vt 9 18.66026
vt 9 19.66026
vt 5.000004 2
vt 9.000005 2
vt 9.000005 0
vt 5.000004 0
vt -9.000004 2
vt -4.422654 2
vt -7.5 14.33013
vt 5 18.66025
vt 7.5 14.33013
vt -12.78868 -5.000001
vt -11 -1.202604E-06
vt -15.57735 -5.000001
vt -15.57735 -1.202604E-06
vt -12.78868 19.66026
vt -12.5 18.66026
vt 11 18.66026
vt 11 19.66026
vt 11 2
vt 15 2
vt 15 0
vt 11 0
vt -15.57735 2
vt -11 2
vt -10 16.49519
vt 10 16.49519
vt 10 18.66026
vt 10 19.66026

vn -1 0 -8.60319E-08
vn -0.5 0 0.8660254
vn 0.5000002 7.063223E-08 0.8660253
vn 1 0 -8.603189E-08
vn 0.5 0 -0.8660254
vn -0.5 0 -0.8660254
vn 0 -1 0
vn 0 1 0
vn 0 0 1
vn 0.8660254 -6.194296E-07 -0.5000001
vn 0 0 -1
vn 0.8660254 4.129531E-07 0.5000001
vn -0.8660254 0 -0.5000001
vn 0.8660254 0 -0.4999999
vn -0.8660254 0 0.5
vn -0.8660254 -2.064766E-07 -0.4999999
vn 0.8660254 -3.097148E-07 0.5
vn -0.8660253 0 0.5000001

usemtl BlockMaterial
f 13/21/7 14/22/7 15/23/7
f 15/23/7 14/22/7 19/26/7
f 19/26/7 14/22/7 21/28/7
f 18/25/8 17/24/8 16/21/8
f 20/27/8 17/24/8 18/25/8
f 22/29/8 17/24/8 20/27/8
f 4/4/2 2/2/1 1/1/1
f 1/1/1 3/3/2 4/4/2
f 8/8/4 6/6/3 5/5/3
f 5/5/3 7/7/4 8/8/4
f 10/12/5 8/10/4 7/9/4
f 7/9/4 9/11/5 10/12/5
f 12/16/6 10/14/5 9/13/5
f 9/13/5 11/15/6 12/16/6
f 2/20/1 12/18/6 11/17/6
f 11/17/6 1/19/1 2/20/1
f 9/31/7 15/23/7 19/26/7
f 19/26/7 11/30/7 9/31/7
f 26/34/8 24/32/8 23/25/8
f 23/25/8 25/33/8 26/34/8
f 11/30/7 19/26/7 21/28/7
f 21/28/7 1/35/7 11/30/7
f 28/36/8 27/29/8 24/32/8
f 24/32/8 26/34/8 28/36/8
f 7/37/7 13/21/7 15/23/7
f 15/23/7 9/31/7 7/37/7
f 25/33/8 23/25/8 29/21/8
f 29/21/8 30/38/8 25/33/8
f 5/40/7 31/39/7 13/21/7
f 13/21/7 7/37/7 5/40/7
f 30/38/8 29/21/8 32/41/8
f 32/41/8 33/42/8 30/38/8
f 1/35/7 21/28/7 34/43/7
f 34/43/7 3/44/7 1/35/7
f 36/46/8 35/45/8 27/29/8
f 27/29/8 28/36/8 36/46/8
f 24/50/9 20/48/9 18/47/9
f 18/47/9 23/49/9 24/50/9
f 30/52/10 8/10/10 10/12/10
f 10/12/10 25/51/10 30/52/10
f 25/54/11 10/14/11 12/16/11
f 12/16/11 26/53/11 25/54/11
f 27/58/12 22/56/12 20/55/12
f 20/55/12 24/57/12 27/58/12
f 26/60/13 12/18/13 2/20/13
f 2/20/13 28/59/13 26/60/13
f 35/57/14 37/55/14 22/61/14
f 22/61/14 27/62/14 35/57/14
f 28/64/15 2/2/15 4/4/15
f 4/4/15 36/63/15 28/64/15
f 29/68/13 16/66/16 38/65/16
f 38/65/16 32/67/16 29/68/13
f 33/70/12 6/6/12 8/8/17
f 8/8/17 30/69/12 33/70/12
f 23/73/18 18/71/18 16/66/18
f 16/66/18 29/72/18 23/73/18
f 21/28/7 14/22/7 39/74/7
f 39/74/7 34/43/7 21/28/7
f 22/29/8 37/45/8 40/75/8
f 40/75/8 17/24/8 22/29/8
f 42/78/9 41/77/9 5/76/3
f 5/76/3 6/79/3 42/78/9
f 44/81/9 43/80/9 41/77/9
f 41/77/9 42/78/9 44/81/9
f 45/82/7 31/39/7 5/40/7
f 5/40/7 41/83/7 45/82/7
f 46/84/7 45/82/7 41/83/7
f 41/83/7 43/85/7 46/84/7
f 33/42/8 32/41/8 47/86/8
f 47/86/8 48/87/8 33/42/8
f 49/90/11 47/89/11 32/88/11
f 32/88/11 38/91/11 49/90/11
f 48/92/9 42/78/9 6/79/9
f 6/79/9 33/93/9 48/92/9
f 14/22/7 13/21/7 31/39/7
f 31/39/7 50/94/7 14/22/7
f 38/95/8 16/21/8 17/24/8
f 17/24/8 51/96/8 38/95/8
f 53/98/9 52/97/9 43/80/9
f 43/80/9 44/81/9 53/98/9
f 4/100/2 3/99/2 52/97/9
f 52/97/9 53/98/9 4/100/2
f 34/43/7 54/102/7 52/101/7
f 52/101/7 3/44/7 34/43/7
f 43/85/7 52/101/7 54/102/7
f 54/102/7 46/84/7 43/85/7
f 55/103/8 35/45/8 36/46/8
f 36/46/8 56/104/8 55/103/8
f 35/106/11 55/105/11 57/108/11
f 57/108/11 37/107/11 35/106/11
f 36/109/9 4/100/9 53/98/9
f 53/98/9 56/110/9 36/109/9
f 50/94/7 31/39/7 45/82/7
f 45/82/7 58/111/7 50/94/7
f 14/22/7 50/94/7 58/111/7
f 58/111/7 39/74/7 14/22/7
f 54/102/7 58/111/7 45/82/7
f 45/82/7 46/84/7 54/102/7
f 34/43/7 39/74/7 58/111/7
f 58/111/7 54/102/7 34/43/7
f 40/75/8 37/45/8 57/103/8
f 57/103/8 59/112/8 40/75/8
f 59/112/8 57/103/8 60/113/8
f 60/113/8 49/86/8 59/112/8
f 51/96/8 59/112/8 49/86/8
f 49/86/8 38/95/8 51/96/8
f 51/96/8 17/24/8 40/75/8
f 40/75/8 59/112/8 51/96/8
f 55/103/4 56/104/4 53/104/4
f 53/104/4 57/103/4 55/103/4
f 44/114/8 60/113/8 57/103/8
f 57/103/8 53/104/8 44/114/8
f 49/86/8 60/113/8 44/114/8
f 44/114/8 42/87/8 49/86/8
f 47/86/1 49/86/1 42/87/1
f 42/87/1 48/87/1 47/86/1

